<?xml version="1.0" encoding="UTF-8"?>
<svg version="1.1" xmlns="http://www.w3.org/2000/svg" width="512" height="512">
<path d="M0 0 C0.93199219 0.45246094 1.86398437 0.90492188 2.82421875 1.37109375 C9.55580103 4.83546455 15.22753016 9.13378822 21 14 C21.83144531 14.63679688 22.66289062 15.27359375 23.51953125 15.9296875 C39.39416612 29.17938275 51.12269118 52.36114851 53 73 C53.87121398 92.13300484 52.65802637 108.27648389 45 126 C44.63132812 126.86238281 44.26265625 127.72476563 43.8828125 128.61328125 C40.56413378 135.78849351 35.87780054 141.81725282 31 148 C29.824375 149.5778125 29.824375 149.5778125 28.625 151.1875 C13.33775913 167.56668665 -9.7173691 179.94190231 -32.38208008 181.12426758 C-62.50202379 182.00144203 -86.1441794 174.44275045 -108.890625 154.328125 C-126.57916105 137.59572604 -136.45021852 112.8309855 -137.33447266 88.76855469 C-137.80324346 62.52868543 -128.13201008 39.61842571 -111 20 C-110.44699219 19.36191406 -109.89398438 18.72382813 -109.32421875 18.06640625 C-82.25550111 -11.0173524 -34.88274433 -17.11699758 0 0 Z " fill="#000000" transform="translate(459,170)"/>
<path d="M0 0 C20.1820132 15.71400726 33.40484932 38.30980502 36.93359375 63.73046875 C39.29937596 90.49945646 32.7106414 115.504276 15.78125 136.64453125 C14.27389907 138.42685499 12.75414082 140.19880494 11.21875 141.95703125 C10.38923828 142.91416016 10.38923828 142.91416016 9.54296875 143.890625 C-5.79725456 160.37280041 -30.01095171 170.36975154 -52.25390625 171.29296875 C-69.17803915 171.56407841 -84.45160089 169.47930542 -99.78125 161.95703125 C-101.17923828 161.27833984 -101.17923828 161.27833984 -102.60546875 160.5859375 C-109.33705103 157.1215667 -115.00878016 152.82324303 -120.78125 147.95703125 C-121.61269531 147.32023438 -122.44414063 146.6834375 -123.30078125 146.02734375 C-139.17541612 132.7776485 -150.90394118 109.59588274 -152.78125 88.95703125 C-153.65246398 69.82402641 -152.43927637 53.68054736 -144.78125 35.95703125 C-144.41257813 35.09464844 -144.04390625 34.23226562 -143.6640625 33.34375 C-140.34538378 26.16853774 -135.65905054 20.13977843 -130.78125 13.95703125 C-129.9975 12.90515625 -129.21375 11.85328125 -128.40625 10.76953125 C-94.69485018 -25.3498257 -39.07415602 -28.70194325 0 0 Z " fill="#000000" transform="translate(152.78125,180.04296875)"/>
</svg>
