<?xml version="1.0" encoding="UTF-8"?>
<!DOCTYPE svg PUBLIC "-//W3C//DTD SVG 1.1//EN" "http://www.w3.org/Graphics/SVG/1.1/DTD/svg11.dtd">
<svg xmlns="http://www.w3.org/2000/svg" version="1.1" width="512px" height="884px" style="shape-rendering:geometricPrecision; text-rendering:geometricPrecision; image-rendering:optimizeQuality; fill-rule:evenodd; clip-rule:evenodd" xmlns:xlink="http://www.w3.org/1999/xlink">
<g><path style="opacity:0.987" fill="#000000" d="M 57.5,-0.5 C 65.5,-0.5 73.5,-0.5 81.5,-0.5C 95.3781,2.43901 107.711,8.60568 118.5,18C 245.027,144.194 371.194,270.694 497,397.5C 504.265,407.155 509.098,417.822 511.5,429.5C 511.5,437.5 511.5,445.5 511.5,453.5C 509.098,465.178 504.265,475.845 497,485.5C 371.194,612.306 245.027,738.806 118.5,865C 107.711,874.394 95.3781,880.561 81.5,883.5C 73.5,883.5 65.5,883.5 57.5,883.5C 26.5,875.833 7.16667,856.5 -0.5,825.5C -0.5,817.5 -0.5,809.5 -0.5,801.5C 2.43901,787.622 8.60568,775.289 18,764.5C 125.68,656.986 233.18,549.32 340.5,441.5C 233.18,333.68 125.68,226.014 18,118.5C 8.60568,107.711 2.43901,95.3781 -0.5,81.5C -0.5,73.5 -0.5,65.5 -0.5,57.5C 7.16667,26.5 26.5,7.16667 57.5,-0.5 Z"/></g>
</svg>
