<?xml version="1.0" standalone="no"?>
<!DOCTYPE svg PUBLIC "-//W3C//DTD SVG 20010904//EN"
 "http://www.w3.org/TR/2001/REC-SVG-20010904/DTD/svg10.dtd">
<svg version="1.0" xmlns="http://www.w3.org/2000/svg"
 width="512.000000pt" height="512.000000pt" viewBox="0 0 512.000000 512.000000"
 preserveAspectRatio="xMidYMid meet">

<g transform="translate(0.000000,512.000000) scale(0.100000,-0.100000)"
fill="#000000" stroke="none">
<path d="M2179 2888 c-213 -257 -211 -473 4 -704 l54 -58 57 34 c75 46 168
135 195 187 11 23 21 45 21 48 0 3 -33 5 -73 5 -62 0 -83 5 -135 31 -105 52
-163 138 -170 251 -5 78 11 135 58 203 39 57 35 58 -11 3z"/>
</g>
</svg>
