<?xml version="1.0" encoding="UTF-8"?>
<svg version="1.1" xmlns="http://www.w3.org/2000/svg" width="512" height="512">
<path d="M0 0 C16.14381516 13.57869001 29.22956609 32.42022599 31.65478516 53.73706055 C32.30769799 53.73554167 32.96061082 53.73402278 33.63330889 53.73245788 C72.32977163 53.64294659 111.02622101 53.57431483 149.72276631 53.53279923 C154.36905141 53.5277964 159.0153363 53.52261911 163.66162109 53.51733398 C165.04910924 53.51576012 165.04910924 53.51576012 166.46462744 53.51415446 C181.44219733 53.49674899 196.41970581 53.4652105 211.39723927 53.42844936 C226.76544271 53.39104393 242.133614 53.36882553 257.5018611 53.36070657 C266.98499643 53.35521797 276.46795819 53.33788238 285.95104009 53.30539468 C292.45384915 53.28425172 298.95656847 53.27786001 305.45940942 53.28305504 C309.21131324 53.28561717 312.96291374 53.2816882 316.71476364 53.26023865 C320.78469068 53.23714082 324.85397248 53.24511331 328.9239502 53.25604248 C330.69828706 53.23856543 330.69828706 53.23856543 332.5084691 53.22073531 C339.99965755 53.27518166 345.92159569 54.05142763 351.49462891 59.5534668 C351.85685547 60.12967773 352.21908203 60.70588867 352.59228516 61.29956055 C352.97255859 61.87834961 353.35283203 62.45713867 353.74462891 63.0534668 C356.78238993 68.67267281 356.65045208 76.06628852 355.00634766 82.12768555 C352.7706798 87.13405289 349.4457197 90.14706577 344.65478516 92.73706055 C341.62490706 93.74701991 339.61235779 93.86138738 336.44425678 93.86010838 C335.35843101 93.86209942 334.27260523 93.86409047 333.15387565 93.86614186 C331.9564202 93.86322901 330.75896475 93.86031617 329.52522278 93.85731506 C328.25675827 93.85816949 326.98829377 93.85902391 325.68139094 93.85990423 C322.15366976 93.86214584 318.6259788 93.85813244 315.09826148 93.85312617 C311.29664269 93.8488171 307.49502569 93.85026842 303.69340515 93.85102844 C297.10455228 93.85155339 290.51570929 93.84840966 283.9268589 93.8427906 C274.40042847 93.83467162 264.87400283 93.83205997 255.34756931 93.83080261 C239.89243607 93.82861272 224.43730811 93.82195433 208.98217773 93.8125 C193.96687852 93.80332426 178.95158074 93.79624422 163.9362793 93.79199219 C163.01109884 93.79172946 162.08591838 93.79146674 161.13270215 93.79119606 C156.49145197 93.78989104 151.85020179 93.78862733 147.20895159 93.78738415 C108.69089242 93.7770135 70.17283914 93.75939688 31.65478516 93.73706055 C31.42576759 95.64804787 31.42576759 95.64804787 31.19212341 97.59764099 C30.66295658 102.01315872 29.43037782 105.70920314 27.71728516 109.79956055 C27.41226074 110.53053955 27.10723633 111.26151855 26.79296875 112.01464844 C17.04357206 134.37934917 -1.23559999 152.610492 -23.71630859 162.1706543 C-27.23028274 163.49084302 -30.75270519 164.64974887 -34.34521484 165.73706055 C-35.87275391 166.21852539 -35.87275391 166.21852539 -37.43115234 166.7097168 C-53.26821846 170.91338249 -72.73109592 170.74500357 -88.34521484 165.73706055 C-89.26657227 165.45499756 -89.26657227 165.45499756 -90.20654297 165.16723633 C-114.70818725 157.52111745 -134.02494694 141.01951388 -146.41796875 118.5480957 C-149.33757771 112.84571043 -151.42272186 106.8350898 -153.34521484 100.73706055 C-153.68681641 99.67616211 -154.02841797 98.61526367 -154.38037109 97.5222168 C-158.56884977 81.76184819 -158.32594464 62.26633215 -153.34521484 46.73706055 C-153.15717285 46.12282227 -152.96913086 45.50858398 -152.77539062 44.87573242 C-145.12927174 20.37408815 -128.62766818 1.05732846 -106.15625 -11.33569336 C-100.45386473 -14.25530232 -94.4432441 -16.34044647 -88.34521484 -18.26293945 C-87.28431641 -18.60454102 -86.22341797 -18.94614258 -85.13037109 -19.2980957 C-55.42905579 -27.19152313 -23.43179804 -19.18536966 0 0 Z M-83.34521484 23.73706055 C-84.12767578 24.08768555 -84.91013672 24.43831055 -85.71630859 24.79956055 C-100.34721973 32.10233768 -109.25584674 44.89791094 -114.46240234 59.97143555 C-117.20032982 71.65002886 -116.44934668 84.87399049 -111.34521484 95.73706055 C-110.99458984 96.51952148 -110.64396484 97.30198242 -110.28271484 98.1081543 C-102.97993771 112.73906543 -90.18436446 121.64769244 -75.11083984 126.85424805 C-63.43224653 129.59217552 -50.2082849 128.84119238 -39.34521484 123.73706055 C-38.56275391 123.38643555 -37.78029297 123.03581055 -36.97412109 122.67456055 C-22.34320996 115.37178341 -13.43458295 102.57621016 -8.22802734 87.50268555 C-5.49009987 75.82409224 -6.24108301 62.60013061 -11.34521484 51.73706055 C-11.69583984 50.95459961 -12.04646484 50.17213867 -12.40771484 49.3659668 C-19.71049198 34.73505566 -32.50606523 25.82642865 -47.57958984 20.61987305 C-59.25818316 17.88194557 -72.48214478 18.63292871 -83.34521484 23.73706055 Z " fill="#000000" transform="translate(156.34521484375,292.262939453125)"/>
<path d="M0 0 C0.61423828 0.18804199 1.22847656 0.37608398 1.86132812 0.56982422 C26.3629724 8.2159431 45.67973209 24.71754666 58.07275391 47.18896484 C60.99236287 52.89135012 63.07750701 58.90197074 65 65 C65.51240234 66.59134766 65.51240234 66.59134766 66.03515625 68.21484375 C70.22363493 83.97521235 69.9807298 103.47072839 65 119 C64.71793701 119.92135742 64.71793701 119.92135742 64.43017578 120.86132812 C56.7840569 145.3629724 40.28245334 164.67973209 17.81103516 177.07275391 C12.10864988 179.99236287 6.09802926 182.07750701 0 184 C-1.06089844 184.34160156 -2.12179687 184.68320313 -3.21484375 185.03515625 C-27.12361188 191.3891552 -53.32150637 187.0775784 -74.81640625 175.48046875 C-95.82516906 162.91190759 -111.66420744 143.42884612 -119 120 C-119.41632394 117.33991768 -119.69551193 114.67634453 -120 112 C-120.97936925 112.00227832 -120.97936925 112.00227832 -121.97852373 112.00460267 C-160.67498647 112.09411395 -199.37143585 112.16274571 -238.06798115 112.20426132 C-242.71426626 112.20926415 -247.36055115 112.21444144 -252.00683594 112.21972656 C-253.39432408 112.22130043 -253.39432408 112.22130043 -254.80984229 112.22290608 C-269.78741218 112.24031156 -284.76492065 112.27185005 -299.74245411 112.30861118 C-315.11065756 112.34601661 -330.47882884 112.36823501 -345.84707594 112.37635398 C-355.33021127 112.38184258 -364.81317303 112.39917817 -374.29625493 112.43166587 C-380.799064 112.45280883 -387.30178332 112.45920054 -393.80462426 112.45400551 C-397.55652809 112.45144338 -401.30812858 112.45537234 -405.05997849 112.4768219 C-409.12990552 112.49991972 -413.19918732 112.49194724 -417.26916504 112.48101807 C-418.45205628 112.49266943 -419.63494752 112.5043208 -420.85368395 112.51632524 C-428.3448724 112.46187889 -434.26681053 111.68563291 -439.83984375 106.18359375 C-440.20207031 105.60738281 -440.56429688 105.03117187 -440.9375 104.4375 C-441.31777344 103.85871094 -441.69804687 103.27992188 -442.08984375 102.68359375 C-445.12760477 97.06438773 -444.99566692 89.67077203 -443.3515625 83.609375 C-441.11589464 78.60300766 -437.79093455 75.58999478 -433 73 C-429.97012191 71.99004064 -427.95757264 71.87567316 -424.78947163 71.87695217 C-423.16073297 71.8739656 -423.16073297 71.8739656 -421.49909049 71.87091869 C-420.30163505 71.87383153 -419.1041796 71.87674437 -417.87043762 71.87974548 C-416.60197312 71.87889106 -415.33350861 71.87803663 -414.02660578 71.87715632 C-410.49888461 71.8749147 -406.97119365 71.87892811 -403.44347632 71.88393438 C-399.64185754 71.88824345 -395.84024053 71.88679213 -392.03862 71.8860321 C-385.44976712 71.88550716 -378.86092413 71.88865089 -372.27207375 71.89426994 C-362.74564331 71.90238893 -353.21921767 71.90500057 -343.69278415 71.90625793 C-328.23765092 71.90844782 -312.78252295 71.91510621 -297.32739258 71.92456055 C-282.31209337 71.93373629 -267.29679559 71.94081633 -252.28149414 71.94506836 C-251.35631368 71.94533108 -250.43113322 71.94559381 -249.47791699 71.94586449 C-244.83666682 71.94716951 -240.19541663 71.94843322 -235.55416644 71.94967639 C-197.03610727 71.96004705 -158.51805398 71.97766366 -120 72 C-119.77098244 70.08901268 -119.77098244 70.08901268 -119.53733826 68.13941956 C-119.00817142 63.72390182 -117.77559266 60.02785741 -116.0625 55.9375 C-115.75747559 55.206521 -115.45245117 54.47554199 -115.13818359 53.72241211 C-105.3887869 31.35771137 -87.10961486 13.12656854 -64.62890625 3.56640625 C-61.11493211 2.24621753 -57.59250966 1.08731168 -54 0 C-52.98164063 -0.32097656 -51.96328125 -0.64195313 -50.9140625 -0.97265625 C-35.07699639 -5.17632195 -15.61411893 -5.00794302 0 0 Z M-49 42 C-49.78246094 42.350625 -50.56492187 42.70125 -51.37109375 43.0625 C-66.00200489 50.36527714 -74.9106319 63.16085039 -80.1171875 78.234375 C-82.85511498 89.91296831 -82.10413184 103.13692994 -77 114 C-76.649375 114.78246094 -76.29875 115.56492187 -75.9375 116.37109375 C-68.63472286 131.00200489 -55.83914961 139.9106319 -40.765625 145.1171875 C-29.08703169 147.85511498 -15.86307006 147.10413184 -5 142 C-4.21753906 141.649375 -3.43507813 141.29875 -2.62890625 140.9375 C12.00200489 133.63472286 20.9106319 120.83914961 26.1171875 105.765625 C28.85511498 94.08703169 28.10413184 80.86307006 23 70 C22.649375 69.21753906 22.29875 68.43507813 21.9375 67.62890625 C14.63472286 52.99799511 1.83914961 44.0893681 -13.234375 38.8828125 C-24.91296831 36.14488502 -38.13692994 36.89586816 -49 42 Z " fill="#000000" transform="translate(444,54)"/>
</svg>
